<svg xmlns="http://www.w3.org/2000/svg" viewBox="0 0 128 128">
  <rect width="128" height="128" rx="18" fill="#4d1f17"/>
  <rect x="18" y="18" width="92" height="92" rx="12" fill="#d1a33f"/>
  <path d="M46 28h30c6 0 10 4 10 10v40c0 8-6 14-14 14H60c-10 0-18-8-18-18V34c0-4 2-6 4-6Z" fill="#f6e6c8" stroke="#4d1f17" stroke-width="6"/>
  <path d="M84 42h10c9 0 16 7 16 16s-7 16-16 16H84" fill="none" stroke="#4d1f17" stroke-width="6" stroke-linecap="round"/>
  <path d="M46 52h40v24c0 8-6 14-14 14H60c-8 0-14-6-14-14Z" fill="#a95b2a"/>
  <path d="M43 34c5-8 10-10 16-6 5-8 11-9 18-3 3-5 8-7 12-4 5 4 5 12 0 17H43c-6-4-6-11 0-4Z" fill="#fff7e5"/>
</svg>
